<svg width="63" height="62" viewBox="0 0 63 62" fill="none" xmlns="http://www.w3.org/2000/svg">
<path d="M31.5055 61.3667C48.2735 61.3667 61.8666 47.7736 61.8666 31.0056C61.8666 14.2376 48.2735 0.644531 31.5055 0.644531C14.7376 0.644531 1.14453 14.2376 1.14453 31.0056C1.14453 47.7736 14.7376 61.3667 31.5055 61.3667Z" fill="#FF270E"/>
<path d="M31.5 62C25.3685 62 19.3747 60.1817 14.2766 56.7751C9.17859 53.3685 5.20527 48.5266 2.85915 42.8617C0.513018 37.1968 -0.100525 30.9634 1.09613 24.9499C2.29279 18.9363 5.24585 13.4126 9.58191 9.07745C13.918 4.74228 19.4423 1.79031 25.4561 0.594889C31.4699 -0.60053 37.7032 0.0142913 43.3676 2.36159C49.032 4.70888 53.8731 8.68323 57.2786 13.782C60.6842 18.8808 62.5012 24.8749 62.5 31.0064C62.4915 39.2249 59.2225 47.1043 53.4105 52.9151C47.5985 58.7259 39.7185 61.9932 31.5 62ZM31.5 1.30341C25.6215 1.30341 19.875 3.04658 14.9872 6.31249C10.0994 9.57841 6.28986 14.2204 4.04026 19.6514C1.79066 25.0824 1.20209 31.0585 2.34892 36.8241C3.49576 42.5896 6.32655 47.8856 10.4833 52.0423C14.64 56.199 19.9359 59.0298 25.7015 60.1766C31.467 61.3235 37.4432 60.7348 42.8742 58.4852C48.3052 56.2356 52.9472 52.4261 56.2131 47.5383C59.479 42.6505 61.2221 36.9041 61.2221 31.0256C61.2188 23.142 58.0869 15.5821 52.5142 10.0058C46.9415 4.42947 39.3835 1.29271 31.5 1.28424V1.30341Z" fill="white"/>
<path d="M46.0564 22.2899L41.4051 17.6387L31.2848 27.7526L21.1772 17.6387L16.5195 22.2899L26.6335 32.4039L16.5195 42.5179L21.1772 47.1756L31.2848 37.0616L41.4051 47.1756L46.0564 42.5179L35.9424 32.4039L46.0564 22.2899Z" fill="white"/>
</svg>
