<svg width="63" height="63" viewBox="0 0 63 63" fill="none" xmlns="http://www.w3.org/2000/svg">
<path d="M25.2 47.25L9.45 31.5L13.8915 27.027L25.2 38.3355L49.1085 14.427L53.55 18.9L25.2 47.25ZM31.5 0C27.3634 0 23.2672 0.814772 19.4455 2.39779C15.6237 3.98082 12.1512 6.30109 9.22614 9.22614C3.31874 15.1335 0 23.1457 0 31.5C0 39.8543 3.31874 47.8665 9.22614 53.7739C12.1512 56.6989 15.6237 59.0192 19.4455 60.6022C23.2672 62.1852 27.3634 63 31.5 63C39.8543 63 47.8665 59.6813 53.7739 53.7739C59.6813 47.8665 63 39.8543 63 31.5C63 27.3634 62.1852 23.2672 60.6022 19.4455C59.0192 15.6237 56.6989 12.1512 53.7739 9.22614C50.8488 6.30109 47.3763 3.98082 43.5545 2.39779C39.7328 0.814772 35.6366 0 31.5 0Z" fill="#51BF29"/>
</svg>
