<svg width="24" height="24" viewBox="0 0 24 24" fill="none" xmlns="http://www.w3.org/2000/svg">
<path d="M14.9997 21.9997L14.445 22.8318C14.7519 23.0363 15.1464 23.0554 15.4716 22.8814C15.7967 22.7074 15.9997 22.3685 15.9997 21.9997H14.9997ZM11.9997 19.9997L12.5544 19.1677C12.2185 18.9437 11.7809 18.9437 11.445 19.1677L11.9997 19.9997ZM8.99971 21.9997H7.99971C7.99971 22.3685 8.20269 22.7074 8.52785 22.8814C8.85301 23.0554 9.24755 23.0363 9.55441 22.8318L8.99971 21.9997ZM8.75055 3.53683L8.67025 4.5336L8.75055 3.53683ZM10.4344 2.83937L9.67276 2.19133L9.67276 2.19133L10.4344 2.83937ZM6.53161 5.68575L5.53484 5.76606L6.53161 5.68575ZM8.68575 3.53161L8.76606 2.53484L8.68575 3.53161ZM5.83937 7.43437L6.48741 8.19598L6.48741 8.19598L5.83937 7.43437ZM6.53683 5.75055L7.5336 5.67025L6.53683 5.75055ZM5.78986 10.5229L5.14182 11.2845L5.14182 11.2845L5.78986 10.5229ZM5.78986 7.4765L5.14182 6.71489L5.14182 6.71489L5.78986 7.4765ZM6.53683 12.2489L5.54006 12.1686L5.54006 12.1686L6.53683 12.2489ZM5.83937 10.565L6.48741 9.80344L6.4874 9.80344L5.83937 10.565ZM8.68575 14.4678L8.76606 15.4646H8.76606L8.68575 14.4678ZM6.53161 12.3137L7.52838 12.394L7.52838 12.394L6.53161 12.3137ZM10.4344 15.1601L11.196 14.512L11.196 14.512L10.4344 15.1601ZM8.75055 14.4626L8.67025 13.4658H8.67025L8.75055 14.4626ZM13.5229 15.2096L14.2845 15.8576L14.2845 15.8576L13.5229 15.2096ZM10.4765 15.2096L9.71489 15.8576L9.71489 15.8576L10.4765 15.2096ZM15.2489 14.4626L15.3292 13.4658L15.3292 13.4658L15.2489 14.4626ZM13.565 15.1601L12.8034 14.512L12.8034 14.512L13.565 15.1601ZM17.4678 12.3137L18.4646 12.2334L18.4646 12.2334L17.4678 12.3137ZM15.3137 14.4678L15.2334 15.4646L15.2334 15.4646L15.3137 14.4678ZM18.1601 10.5651L18.8081 11.3267L18.8081 11.3267L18.1601 10.5651ZM17.4626 12.2489L16.4658 12.3292L16.4658 12.3292L17.4626 12.2489ZM18.2096 7.4765L18.8576 6.71489L18.8576 6.71489L18.2096 7.4765ZM18.2096 10.5229L17.5615 9.76132L17.5615 9.76132L18.2096 10.5229ZM17.4626 5.75055L16.4658 5.67025V5.67025L17.4626 5.75055ZM18.1601 7.43437L17.512 8.19598L17.512 8.19598L18.1601 7.43437ZM15.3137 3.53161L15.2334 2.53484L15.2334 2.53484L15.3137 3.53161ZM17.4678 5.68576L18.4646 5.76606V5.76606L17.4678 5.68576ZM13.5651 2.83937L14.3267 2.19133L14.3267 2.19132L13.5651 2.83937ZM15.2489 3.53683L15.3292 4.5336H15.3292L15.2489 3.53683ZM13.5229 2.78986L12.7613 3.4379L12.7613 3.4379L13.5229 2.78986ZM10.4765 2.78986L11.2381 3.4379L11.2381 3.4379L10.4765 2.78986ZM8.99971 14.4581L9.04391 13.4591L8.99971 14.4581ZM15.5544 21.1677L12.5544 19.1677L11.445 20.8318L14.445 22.8318L15.5544 21.1677ZM11.445 19.1677L8.44501 21.1677L9.55441 22.8318L12.5544 20.8318L11.445 19.1677ZM12.7613 3.4379L12.8034 3.48741L14.3267 2.19132L14.2845 2.14181L12.7613 3.4379ZM15.3292 4.5336L15.394 4.52838L15.2334 2.53484L15.1686 2.54006L15.3292 4.5336ZM16.471 5.60545L16.4658 5.67025L18.4594 5.83086L18.4646 5.76606L16.471 5.60545ZM17.512 8.19598L17.5615 8.23811L18.8576 6.71489L18.8081 6.67276L17.512 8.19598ZM17.5615 9.76132L17.512 9.80345L18.8081 11.3267L18.8576 11.2845L17.5615 9.76132ZM16.4658 12.3292L16.471 12.394L18.4646 12.2334L18.4594 12.1686L16.4658 12.3292ZM15.394 13.471L15.3292 13.4658L15.1686 15.4594L15.2334 15.4646L15.394 13.471ZM12.8034 14.512L12.7613 14.5615L14.2845 15.8576L14.3267 15.8081L12.8034 14.512ZM11.2381 14.5615L11.196 14.512L9.67276 15.8081L9.71489 15.8576L11.2381 14.5615ZM8.67025 13.4658L8.60545 13.471L8.76606 15.4646L8.83086 15.4594L8.67025 13.4658ZM7.52838 12.394L7.5336 12.3292L5.54006 12.1686L5.53484 12.2334L7.52838 12.394ZM6.4874 9.80344L6.43789 9.76131L5.14182 11.2845L5.19133 11.3267L6.4874 9.80344ZM6.43789 8.23811L6.48741 8.19598L5.19133 6.67276L5.14182 6.71489L6.43789 8.23811ZM7.5336 5.67025L7.52838 5.60545L5.53484 5.76606L5.54006 5.83086L7.5336 5.67025ZM8.60545 4.52838L8.67025 4.5336L8.83086 2.54006L8.76606 2.53484L8.60545 4.52838ZM11.196 3.48741L11.2381 3.4379L9.71489 2.14182L9.67276 2.19133L11.196 3.48741ZM8.67025 4.5336C9.63137 4.61103 10.5711 4.22177 11.196 3.48741L9.67276 2.19133C9.46448 2.43612 9.15123 2.56587 8.83086 2.54006L8.67025 4.5336ZM7.52838 5.60545C7.4789 4.99127 7.99127 4.4789 8.60545 4.52838L8.76606 2.53484C6.92351 2.3864 5.3864 3.92351 5.53484 5.76606L7.52838 5.60545ZM6.48741 8.19598C7.22177 7.57112 7.61103 6.63136 7.5336 5.67025L5.54006 5.83086C5.56587 6.15123 5.43612 6.46448 5.19133 6.67276L6.48741 8.19598ZM6.4379 9.76132C5.96862 9.36201 5.96862 8.63741 6.4379 8.2381L5.14182 6.71489C3.73398 7.9128 3.73398 10.0866 5.14182 11.2845L6.4379 9.76132ZM7.5336 12.3292C7.61103 11.3681 7.22177 10.4283 6.48741 9.80344L5.19133 11.3267C5.43611 11.5349 5.56587 11.8482 5.54006 12.1686L7.5336 12.3292ZM8.60545 13.471C7.99127 13.5205 7.4789 13.0082 7.52838 12.394L5.53484 12.2334C5.3864 14.0759 6.92351 15.613 8.76606 15.4646L8.60545 13.471ZM12.7613 14.5615C12.362 15.0308 11.6374 15.0308 11.2381 14.5615L9.71489 15.8576C10.9128 17.2654 13.0866 17.2654 14.2845 15.8576L12.7613 14.5615ZM16.471 12.394C16.5205 13.0081 16.0082 13.5205 15.394 13.471L15.2334 15.4646C17.0759 15.613 18.613 14.0759 18.4646 12.2334L16.471 12.394ZM17.512 9.80344C16.7776 10.4283 16.3884 11.3681 16.4658 12.3292L18.4594 12.1686C18.4336 11.8482 18.5633 11.5349 18.8081 11.3267L17.512 9.80344ZM17.5615 8.2381C18.0308 8.63741 18.0308 9.36201 17.5615 9.76132L18.8576 11.2845C20.2654 10.0866 20.2654 7.9128 18.8576 6.71489L17.5615 8.2381ZM16.4658 5.67025C16.3884 6.63136 16.7776 7.57112 17.512 8.19598L18.8081 6.67276C18.5633 6.46448 18.4336 6.15123 18.4594 5.83086L16.4658 5.67025ZM15.394 4.52838C16.0082 4.4789 16.5205 4.99127 16.471 5.60545L18.4646 5.76606C18.613 3.92352 17.0759 2.3864 15.2334 2.53484L15.394 4.52838ZM12.8034 3.48741C13.4283 4.22177 14.3681 4.61103 15.3292 4.5336L15.1686 2.54006C14.8482 2.56587 14.5349 2.43612 14.3267 2.19133L12.8034 3.48741ZM14.2845 2.14182C13.0866 0.733979 10.9128 0.733977 9.71489 2.14182L11.2381 3.4379C11.6374 2.96862 12.362 2.96862 12.7613 3.4379L14.2845 2.14182ZM11.196 14.512C10.6524 13.8732 9.87074 13.4956 9.04391 13.4591L8.95551 15.4571C9.23106 15.4693 9.49165 15.5952 9.67276 15.8081L11.196 14.512ZM9.04391 13.4591C8.92007 13.4536 8.7953 13.4557 8.67025 13.4658L8.83086 15.4594C8.87268 15.456 8.9143 15.4553 8.95551 15.4571L9.04391 13.4591ZM9.99971 21.9997V14.4581H7.99971V21.9997H9.99971ZM15.3292 13.4658C15.2041 13.4557 15.0793 13.4536 14.9555 13.4591L15.0439 15.4571C15.0851 15.4553 15.1267 15.456 15.1686 15.4594L15.3292 13.4658ZM14.9555 13.4591C14.1287 13.4956 13.347 13.8732 12.8034 14.512L14.3267 15.8081C14.5078 15.5952 14.7684 15.4693 15.0439 15.4571L14.9555 13.4591ZM13.9997 14.4581V21.9997H15.9997V14.4581H13.9997Z" fill="#707A8A"/>
<path d="M14 8L11 11L10 10" stroke="#707A8A" stroke-width="2" stroke-linecap="round" stroke-linejoin="round"/>
</svg>
