<svg width="24" height="18" viewBox="0 0 24 18" fill="none" xmlns="http://www.w3.org/2000/svg">
<path d="M22.7064 15V16C22.7064 16.5304 22.4484 17.0391 21.9893 17.4142C21.5301 17.7893 20.9074 18 20.2581 18H3.12015C1.76136 18 0.671875 17.1 0.671875 16V2C0.671875 1.46957 0.929818 0.960859 1.38896 0.585786C1.8481 0.210714 2.47083 0 3.12015 0H20.2581C20.9074 0 21.5301 0.210714 21.9893 0.585786C22.4484 0.960859 22.7064 1.46957 22.7064 2V3H11.6891C10.3303 3 9.24084 3.9 9.24084 5V13C9.24084 13.5304 9.49879 14.0391 9.95793 14.4142C10.4171 14.7893 11.0398 15 11.6891 15H22.7064ZM11.6891 13H23.9305V5H11.6891V13ZM16.5857 10.5C16.0987 10.5 15.6316 10.342 15.2873 10.0607C14.9429 9.77936 14.7495 9.39782 14.7495 9C14.7495 8.60218 14.9429 8.22064 15.2873 7.93934C15.6316 7.65804 16.0987 7.5 16.5857 7.5C17.0727 7.5 17.5397 7.65804 17.8841 7.93934C18.2284 8.22064 18.4219 8.60218 18.4219 9C18.4219 9.39782 18.2284 9.77936 17.8841 10.0607C17.5397 10.342 17.0727 10.5 16.5857 10.5Z" fill="white"/>
</svg>
